<?xml version="1.0" encoding="UTF-8"?>
<svg xmlns="http://www.w3.org/2000/svg" viewBox="360 190 1454 368" role="img" aria-labelledby="logo-title logo-desc" shape-rendering="geometricPrecision">
  <title id="logo-title">bestjev</title>
  <desc id="logo-desc">bestjev logo with a compact two-piece symbol and rounded lowercase wordmark</desc>
  <g id="icon" fill="#000">
    <path transform="translate(350 505) scale(.01 -.01)" d="M9150 22237c-1595-860-3137-1720-3426-1911-290-191-687-534-884-762-197-227-489-672-650-988-514-1010-590-1509-590-3852 0-2312 37-2502 561-2915 182-143 411-209 724-209 385 0 716 138 2062 860 4127 2215 5010 2719 5454 3115 263 233 622 650 799 925 177 275 407 778 513 1117 163 523 194 961 208 2875 15 1972-5 2300-157 2587-95 182-318 418-494 525-192 117-500 195-770 196-391 0-831-206-3350-1563zM17059 16328c-204-52-5294-2757-6560-3486-413-237-948-601-1189-807-241-206-583-602-760-880-177-278-430-797-561-1155-226-615-239-773-239-2954 0-2053 20-2334 180-2580 100-152 325-363 500-470 176-108 478-195 670-195 254-1 899 294 2354 1074 1103 591 2719 1458 3593 1925 1066 570 1781 1028 2175 1390 323 297 703 737 844 979 142 241 342 711 446 1043 161 519 188 934 188 2902 0 1888-28 2350-157 2599-93 181-324 379-575 493-423 192-563 211-909 122z"/>
  </g>
  <g id="wordmark" transform="translate(530 589) scale(.1 -.1)" fill="#000">
    <path d="M917 3769c-92-22-164-80-203-164l-24-50v-835c0-530 4-858 11-899 13-84 50-188 95-270 242-441 847-607 1350-372 263 124 450 338 530 608 37 126 44 319 16 453-58 279-225 497-477 622-155 77-265 102-450 103-154 0-238-15-383-67-46-17-86-27-90-23-4 3-8 149-9 323-1 174-5 336-8 358-13 93-101 180-211 209-64 17-91 17-147 4zm960-1363c87-42 160-112 196-188 138-292-66-618-387-618-217 0-379 127-422 330-30 145 13 290 116 390 134 132 330 165 497 86zM8118 3767c-94-36-157-90-204-177-30-55-27-200 6-263 30-60 106-132 168-160 72-33 208-31 282 4 78 37 134 90 167 157 55 113 30 265-61 355-64 64-128 90-231 94-59 2-103-1-127-10zM6863 3400c-63-13-116-44-162-96-74-85-72-52-69-945l3-794 28-80c67-189 174-296 362-362 75-26 90-28 240-28h160l67 33c38 19 80 49 97 69 89 109 78 282-24 371-48 43-71 51-179 68-157 24-156 21-156 437v324l38 7c20 3 76 6 123 6 106 0 163 18 217 71 65 62 77 91 77 189 0 74-3 91-27 130-27 46-56 72-118 106-28 15-63 20-170 24l-135 5-6 130c-6 143-16 178-69 239-42 48-101 81-168 95-59 12-69 12-129 1zM3753 2960c-268-27-554-181-702-377-147-195-219-454-191-684 29-246 113-416 284-576 101-94 198-151 337-197 275-92 603-71 866 54 98 46 141 74 201 132 113 108 122 257 21 357-44 45-92 64-159 64-61 0-105-17-210-83-89-56-174-81-296-87-177-9-337 46-406 141-30 41-38 99-15 113 6 4 248 10 537 13l525 5 50 25c121 60 171 152 168 310-7 341-220 622-558 738-136 46-308 66-452 52zm224-505c97-29 198-124 209-196 12-69 14-69-355-69-241 0-330 3-339 12-16 16-15 53 2 86 17 31 87 100 131 127 84 52 249 71 352 40zM5555 2959c-397-40-640-274-622-599 8-154 59-257 174-353 85-71 192-120 420-193 232-75 263-93 263-155 0-44-24-75-65-85-14-3-65-4-113-2-98 5-193 38-310 108-89 52-154 67-225 51-70-15-120-51-154-109-24-41-28-57-28-127 0-99 20-140 101-214 72-66 226-142 359-178 91-24 116-26 280-26 211 0 279 14 433 89 412 200 443 719 57 941-83 48-207 96-406 157-169 53-202 75-197 133 5 59 40 78 146 78 96-1 144-14 285-76 104-47 157-56 225-39 139 33 214 175 170 322-41 137-262 248-549 278-111 11-127 11-244-1zM8141 2955c-110-31-201-129-215-231-3-26-6-361-6-744 0-678-1-700-21-765-27-88-80-147-157-175-148-53-199-98-228-197-38-131 35-271 167-319 62-22 213-20 310 5 259 66 436 252 510 536l24 90v810c0 756-1 812-18 842-66 122-227 187-366 148zM9605 2960c-228-29-430-122-589-271-122-114-209-262-262-444-26-92-29-113-28-255 1-181 17-256 87-404 90-187 214-309 412-407 169-82 284-108 486-109 185 0 357 39 514 116 163 81 266 183 281 280 24 162-135 307-287 261-25-8-80-35-122-61-148-89-328-126-482-97-178 33-337 178-269 245 14 14 75 16 524 16 496 0 511 1 567 21 39 15 75 38 110 73 70 70 88 130 80 276-10 198-79 352-222 496-100 101-187 158-311 203-151 55-344 79-489 61zm276-522c92-42 149-103 173-185 5-15 1-28-13-42-20-20-32-21-349-21-242 0-331 3-340 12-42 42 44 165 158 223 70 36 113 45 215 42 83-2 110-7 156-29zM10915 2947c-135-45-204-137-205-269 0-75 5-88 133-388 41-96 145-344 232-550 200-477 197-471 269-536 80-73 145-97 261-97 118-1 183 24 266 101 68 63 60 47 390 737 309 647 310 650 316 708 12 114-47 216-154 269-60 29-77 33-148 33-72-1-87-4-143-35-35-18-76-49-92-68-24-29-113-231-353-797-31-71-59-129-64-127-4 2-44 96-89 210-44 114-120 308-168 432-49 124-101 242-116 263-33 44-80 82-130 103-49 21-156 27-205 11z"/>
  </g>
</svg>
